<?xml version="1.0" encoding="UTF-8" standalone="no"?>
<svg
   xmlns:dc="http://purl.org/dc/elements/1.1/"
   xmlns:cc="http://creativecommons.org/ns#"
   xmlns:rdf="http://www.w3.org/1999/02/22-rdf-syntax-ns#"
   xmlns:svg="http://www.w3.org/2000/svg"
   xmlns="http://www.w3.org/2000/svg"
   xmlns:sodipodi="http://sodipodi.sourceforge.net/DTD/sodipodi-0.dtd"
   xmlns:inkscape="http://www.inkscape.org/namespaces/inkscape"
   width="1000"
   height="286.64285"
   viewBox="0 0 1000 286.64285"
   version="1.1"
   xml:space="preserve"
   style="clip-rule:evenodd;fill-rule:evenodd;stroke-linejoin:round;stroke-miterlimit:1.41420996"
   id="svg1285"
   sodipodi:docname="logo-header.svg"
   inkscape:version="0.92.2 2405546, 2018-03-11"><metadata
   id="metadata1289"><rdf:RDF><cc:Work
       rdf:about=""><dc:format>image/svg+xml</dc:format><dc:type
         rdf:resource="http://purl.org/dc/dcmitype/StillImage" /><dc:title></dc:title></cc:Work></rdf:RDF></metadata><sodipodi:namedview
   pagecolor="#ffffff"
   bordercolor="#666666"
   borderopacity="1"
   objecttolerance="10"
   gridtolerance="10"
   guidetolerance="10"
   inkscape:pageopacity="0"
   inkscape:pageshadow="2"
   inkscape:window-width="1920"
   inkscape:window-height="1175"
   id="namedview1287"
   showgrid="false"
   fit-margin-top="0"
   fit-margin-left="0"
   fit-margin-right="0"
   fit-margin-bottom="0"
   inkscape:zoom="0.82573726"
   inkscape:cx="438.92362"
   inkscape:cy="320.87266"
   inkscape:window-x="1920"
   inkscape:window-y="0"
   inkscape:window-maximized="0"
   inkscape:current-layer="svg1285"
   showguides="true"
   inkscape:guide-bbox="true" />
    <rect
   style="opacity:1;fill:#f2f2f2;fill-opacity:1;fill-rule:evenodd;stroke:none;stroke-width:0.14294769px;stroke-linecap:butt;stroke-linejoin:miter;stroke-miterlimit:4;stroke-dasharray:none;stroke-dashoffset:0;stroke-opacity:1;marker:none"
   id="rect1929"
   width="1000"
   height="286.64285"
   x="0"
   y="0" /><g
   id="g929"
   transform="translate(0,13.321425)"><g
     transform="matrix(5.1207879,0,0,4.741146,45.483811,-7057.152)"
     id="g1168">
            <path
   d="m 77.792,1533.05 c 0,0.32 -0.064,0.61 -0.192,0.88 -0.128,0.27 -0.3,0.5 -0.516,0.7 -0.216,0.19 -0.468,0.34 -0.756,0.45 -0.288,0.11 -0.596,0.16 -0.924,0.16 h -4.02 v -8.52 h 4.104 c 0.296,0 0.564,0.07 0.804,0.19 0.24,0.13 0.444,0.3 0.612,0.5 0.168,0.21 0.298,0.44 0.39,0.7 0.092,0.26 0.138,0.52 0.138,0.78 0,0.44 -0.108,0.83 -0.324,1.19 -0.216,0.35 -0.516,0.62 -0.9,0.8 0.488,0.14 0.874,0.41 1.158,0.8 0.284,0.39 0.426,0.85 0.426,1.37 z m -0.84,-0.15 c 0,-0.21 -0.036,-0.41 -0.108,-0.6 -0.072,-0.2 -0.174,-0.37 -0.306,-0.52 -0.132,-0.15 -0.288,-0.27 -0.468,-0.36 -0.18,-0.09 -0.374,-0.14 -0.582,-0.14 h -3.264 v 3.23 h 3.18 c 0.216,0 0.418,-0.04 0.606,-0.13 0.188,-0.09 0.352,-0.21 0.492,-0.35 0.14,-0.15 0.25,-0.33 0.33,-0.52 0.08,-0.2 0.12,-0.4 0.12,-0.61 z m -4.728,-5.45 v 3.15 h 2.928 c 0.208,0 0.402,-0.04 0.582,-0.13 0.18,-0.09 0.334,-0.21 0.462,-0.35 0.128,-0.14 0.228,-0.31 0.3,-0.5 0.072,-0.19 0.108,-0.38 0.108,-0.59 0,-0.22 -0.034,-0.42 -0.102,-0.62 -0.068,-0.19 -0.164,-0.35 -0.288,-0.49 -0.124,-0.14 -0.27,-0.26 -0.438,-0.34 -0.168,-0.08 -0.352,-0.13 -0.552,-0.13 z"
   style="fill:#1d2167;fill-rule:nonzero"
   id="path1162"
   inkscape:connector-curvature="0" />
            <path
   d="m 88.436,1526.72 h 0.708 l 3.54,8.52 h -0.888 l -1.104,-2.66 h -3.828 l -1.092,2.66 h -0.9 z m 2.064,5.2 -1.716,-4.21 -1.74,4.21 z"
   style="fill:#1d2167;fill-rule:nonzero"
   id="path1164"
   inkscape:connector-curvature="0" />
            <path
   d="m 105.716,1527.47 h -3.036 v 7.77 h -0.84 v -7.77 h -3.036 v -0.75 h 6.912 z"
   style="fill:#1d2167;fill-rule:nonzero"
   id="path1166"
   inkscape:connector-curvature="0" />
        </g><g
     transform="translate(1.9578e-5)"
     id="g6103"><g
       id="g1172"
       transform="matrix(0.31374232,0,0,0.31374232,-949.56013,-170.6326)">
            <path
   inkscape:connector-curvature="0"
   id="path1170"
   style="fill:url(#_Linear1)"
   d="m 4399.57,773.907 c 0,0 35.33,20.718 42.25,24.779 13.1,7.683 47.96,27.832 64.24,37.232 1.77,1.027 2.87,2.923 2.87,4.975 0.01,2.053 -1.08,3.952 -2.85,4.986 -27.1,15.803 -110.2,64.254 -128.26,74.788 -2.16,1.254 -4.82,1.237 -6.95,-0.046 -13.57,-8.147 -62.93,-37.791 -75.02,-44.875 -16.93,-9.911 -37.27,-21.84 -37.27,-21.84 z" />
        </g><g
       id="g1176"
       transform="matrix(0.31374232,0,0,0.31374232,-949.56013,-170.6326)">
            <path
   inkscape:connector-curvature="0"
   id="path1174"
   style="fill:#31369e"
   d="m 4269.48,860.305 c -54.5,-31.918 -88.34,-51.732 -117.18,-68.621 -3.98,-2.335 -6.43,-6.608 -6.44,-11.228 0,-4.619 2.45,-8.893 6.44,-11.229 l 319.41,-187.171 c 2.02,-1.186 4.52,-1.198 6.56,-0.032 2.03,1.166 3.29,3.333 3.29,5.678 0,29.472 0,107.932 0,138.732 0,7.842 -4.16,15.094 -10.94,19.049 -13.32,7.783 -54.43,31.465 -67.73,39.233 0,0 -133.3,75.654 -133.41,75.589 z" />
        </g><g
       id="g1180"
       transform="matrix(0.31374232,0,0,0.31374232,-949.56013,-170.6326)">
            <path
   inkscape:connector-curvature="0"
   id="path1178"
   style="fill:#1d2167"
   d="m 4604.42,705.593 85.54,34.367 v -63.802 c 0,-2.628 -1.37,-5.066 -3.62,-6.431 -2.24,-1.365 -5.04,-1.459 -7.37,-0.247 -5.93,3.078 -74.55,36.113 -74.55,36.113 z" />
        </g><g
       id="g1184"
       transform="matrix(0.31374232,0,0,0.31374232,-949.56013,-170.6326)">
            <path
   inkscape:connector-curvature="0"
   id="path1182"
   style="fill:url(#_Linear2)"
   d="m 4976.91,704.019 c 0,0 -8.53,-4.983 -8.56,-5 -79.92,-46.83 -170.16,-99.71 -199.6,-116.963 -2.02,-1.186 -4.52,-1.198 -6.56,-0.032 -2.04,1.166 -3.29,3.333 -3.29,5.678 0,29.472 0,107.932 0,138.732 0,7.842 4.16,15.094 10.93,19.049 13.33,7.783 68.33,39.913 68.33,39.913 z" />
        </g><g
       id="g1188"
       transform="matrix(0.31374232,0,0,0.31374232,-949.56013,-170.6326)">
            <path
   inkscape:connector-curvature="0"
   id="path1186"
   style="fill:url(#_Linear3)"
   d="m 4968.44,699.073 c 0,0 -235.66,138.235 -263.83,154.762 -3.01,1.764 -6.73,1.783 -9.76,0.05 -3.02,-1.733 -4.89,-4.953 -4.89,-8.44 V 731.796 c 0,0 -111.16,-50.383 -128.47,-59.371 -2.33,-1.212 -4.9781,-0.84921 -7.37,0.247 -1.9592,0.89788 -3.62,3.803 -3.62,6.431 v 166.342 c 0,3.487 0.43,15.045 -12.02,22.226 -2.41,1.392 -130.21,75.278 -130.21,75.278 l 211.99,122.751 c 0,0 377.71,-221.201 467.9,-274.016 3.98,-2.335 6.43,-6.608 6.43,-11.228 0,-4.619 -2.45,-8.893 -6.43,-11.229 -24.64,-14.438 -119.72,-70.154 -119.72,-70.154"
   sodipodi:nodetypes="cccsccsssccccscc" />
        </g></g><g
     transform="matrix(0.18627124,0,0,0.22786575,340.43532,-286.36087)"
     id="g1262">
            <g
   transform="matrix(1.28,0,0,1,-97.8353,0)"
   id="g1192">
                <path
   d="m 374.487,2270.67 h 4.788 l 23.94,57.61 h -6.006 l -7.465,-18.01 h -25.887 l -7.385,18.01 h -6.086 z m 13.958,35.14 -11.604,-28.49 -11.767,28.49 z"
   style="fill:#1d2167;fill-rule:nonzero"
   id="path1190"
   inkscape:connector-curvature="0" />
            </g>
            <g
   transform="matrix(1.28,0,0,1,-97.8353,0)"
   id="g1196">
                <path
   d="m 421.293,2307.02 c 0,-2.97 0.514,-5.78 1.542,-8.44 1.028,-2.65 2.475,-4.96 4.342,-6.94 1.866,-1.97 4.098,-3.52 6.695,-4.66 2.596,-1.14 5.464,-1.7 8.602,-1.7 4.003,0 7.492,0.9 10.468,2.71 2.975,1.82 5.221,4.26 6.735,7.35 l -5.356,1.7 c -1.19,-2.16 -2.853,-3.85 -4.99,-5.07 -2.137,-1.22 -4.504,-1.83 -7.101,-1.83 -2.164,0 -4.179,0.44 -6.046,1.3 -1.866,0.87 -3.489,2.05 -4.869,3.53 -1.379,1.49 -2.461,3.26 -3.246,5.32 -0.784,2.05 -1.176,4.3 -1.176,6.73 0,2.38 0.405,4.63 1.217,6.74 0.811,2.11 1.92,3.94 3.327,5.48 1.407,1.54 3.043,2.76 4.91,3.65 1.866,0.89 3.854,1.34 5.964,1.34 1.353,0 2.692,-0.19 4.017,-0.57 1.326,-0.38 2.556,-0.91 3.692,-1.58 1.137,-0.68 2.11,-1.45 2.922,-2.32 0.811,-0.86 1.379,-1.78 1.704,-2.75 l 5.437,1.62 c -0.595,1.51 -1.461,2.91 -2.597,4.18 -1.136,1.27 -2.475,2.38 -4.017,3.32 -1.541,0.95 -3.246,1.68 -5.112,2.2 -1.867,0.51 -3.801,0.77 -5.802,0.77 -3.084,0 -5.924,-0.59 -8.521,-1.75 -2.597,-1.16 -4.842,-2.76 -6.736,-4.79 -1.893,-2.03 -3.367,-4.36 -4.422,-7.02 -1.055,-2.65 -1.583,-5.49 -1.583,-8.52 z"
   style="fill:#1d2167;fill-rule:nonzero"
   id="path1194"
   inkscape:connector-curvature="0" />
            </g>
            <g
   transform="matrix(1.28,0,0,1,-97.8353,0)"
   id="g1200">
                <path
   d="m 476.962,2329.1 c -2.001,0 -3.854,-0.34 -5.558,-1.02 -1.705,-0.67 -3.192,-1.61 -4.464,-2.8 -1.271,-1.19 -2.258,-2.58 -2.962,-4.18 -0.703,-1.59 -1.055,-3.31 -1.055,-5.15 0,-1.84 0.433,-3.54 1.299,-5.11 0.865,-1.57 2.083,-2.92 3.652,-4.06 1.568,-1.14 3.435,-2.02 5.599,-2.64 2.164,-0.62 4.544,-0.93 7.141,-0.93 2.164,0 4.355,0.19 6.573,0.57 2.218,0.38 4.193,0.92 5.924,1.62 v -3.81 c 0,-3.74 -1.055,-6.7 -3.165,-8.89 -2.11,-2.19 -5.031,-3.29 -8.764,-3.29 -2.164,0 -4.382,0.44 -6.654,1.3 -2.272,0.87 -4.572,2.11 -6.898,3.74 l -1.948,-3.66 c 5.465,-3.67 10.766,-5.51 15.906,-5.51 5.302,0 9.467,1.48 12.497,4.46 3.03,2.97 4.544,7.09 4.544,12.33 v 19.07 c 0,1.52 0.677,2.28 2.029,2.28 v 4.86 c -0.919,0.17 -1.623,0.25 -2.11,0.25 -1.406,0 -2.502,-0.35 -3.286,-1.06 -0.785,-0.7 -1.204,-1.67 -1.258,-2.92 l -0.162,-3.33 c -1.948,2.55 -4.396,4.5 -7.345,5.85 -2.948,1.35 -6.126,2.03 -9.535,2.03 z m 1.299,-4.22 c 2.867,0 5.504,-0.54 7.912,-1.63 2.407,-1.08 4.233,-2.51 5.478,-4.3 0.486,-0.48 0.852,-1.01 1.095,-1.58 0.244,-0.57 0.365,-1.09 0.365,-1.58 v -6.9 c -1.839,-0.7 -3.746,-1.24 -5.721,-1.62 -1.975,-0.38 -3.99,-0.57 -6.046,-0.57 -3.895,0 -7.06,0.81 -9.494,2.43 -2.435,1.63 -3.652,3.76 -3.652,6.41 0,1.3 0.257,2.52 0.771,3.66 0.514,1.13 1.217,2.12 2.11,2.96 0.893,0.84 1.961,1.5 3.205,1.99 1.245,0.48 2.57,0.73 3.977,0.73 z"
   style="fill:#1d2167;fill-rule:nonzero"
   id="path1198"
   inkscape:connector-curvature="0" />
            </g>
            <g
   transform="matrix(1.28,0,0,1,-97.8353,0)"
   id="g1204">
                <path
   d="m 528.158,2326.26 c -0.325,0.16 -0.798,0.38 -1.42,0.65 -0.622,0.27 -1.339,0.54 -2.151,0.81 -0.811,0.27 -1.731,0.51 -2.759,0.73 -1.028,0.21 -2.11,0.32 -3.246,0.32 -1.19,0 -2.326,-0.16 -3.408,-0.49 -1.082,-0.32 -2.029,-0.82 -2.84,-1.5 -0.812,-0.67 -1.461,-1.52 -1.948,-2.55 -0.487,-1.03 -0.73,-2.22 -0.73,-3.57 v -30.27 h -5.843 v -4.38 h 5.843 v -14.29 h 5.518 v 14.29 h 9.738 v 4.38 h -9.738 v 28.73 c 0.108,1.56 0.663,2.71 1.664,3.44 1,0.73 2.15,1.1 3.448,1.1 1.569,0 2.949,-0.26 4.139,-0.77 1.19,-0.52 1.948,-0.88 2.272,-1.1 z"
   style="fill:#1d2167;fill-rule:nonzero"
   id="path1202"
   inkscape:connector-curvature="0" />
            </g>
            <g
   transform="matrix(1.28,0,0,1,-97.8353,0)"
   id="g1208">
                <path
   d="m 547.959,2307.02 c 0,-2.97 0.514,-5.78 1.542,-8.44 1.027,-2.65 2.475,-4.96 4.341,-6.94 1.866,-1.97 4.098,-3.52 6.695,-4.66 2.597,-1.14 5.464,-1.7 8.602,-1.7 4.003,0 7.493,0.9 10.468,2.71 2.976,1.82 5.221,4.26 6.736,7.35 l -5.356,1.7 c -1.19,-2.16 -2.854,-3.85 -4.991,-5.07 -2.137,-1.22 -4.504,-1.83 -7.101,-1.83 -2.164,0 -4.179,0.44 -6.045,1.3 -1.867,0.87 -3.49,2.05 -4.869,3.53 -1.38,1.49 -2.462,3.26 -3.246,5.32 -0.785,2.05 -1.177,4.3 -1.177,6.73 0,2.38 0.406,4.63 1.217,6.74 0.812,2.11 1.921,3.94 3.327,5.48 1.407,1.54 3.044,2.76 4.91,3.65 1.866,0.89 3.855,1.34 5.965,1.34 1.352,0 2.691,-0.19 4.016,-0.57 1.326,-0.38 2.557,-0.91 3.693,-1.58 1.136,-0.68 2.11,-1.45 2.921,-2.32 0.812,-0.86 1.38,-1.78 1.704,-2.75 l 5.437,1.62 c -0.595,1.51 -1.46,2.91 -2.596,4.18 -1.136,1.27 -2.475,2.38 -4.017,3.32 -1.542,0.95 -3.246,1.68 -5.113,2.2 -1.866,0.51 -3.8,0.77 -5.802,0.77 -3.084,0 -5.924,-0.59 -8.521,-1.75 -2.597,-1.16 -4.842,-2.76 -6.735,-4.79 -1.894,-2.03 -3.368,-4.36 -4.423,-7.02 -1.055,-2.65 -1.582,-5.49 -1.582,-8.52 z"
   style="fill:#1d2167;fill-rule:nonzero"
   id="path1206"
   inkscape:connector-curvature="0" />
            </g>
            <g
   transform="matrix(1.28,0,0,1,-97.8353,0)"
   id="g1212">
                <path
   d="m 593.24,2269.05 h 5.519 v 49.66 c 0,1.57 0.432,2.8 1.298,3.69 0.866,0.89 2.083,1.34 3.652,1.34 0.595,0 1.298,-0.08 2.11,-0.24 0.811,-0.16 1.569,-0.38 2.272,-0.65 l 0.974,4.46 c -1.028,0.43 -2.286,0.79 -3.774,1.06 -1.487,0.27 -2.772,0.4 -3.854,0.4 -2.543,0 -4.545,-0.72 -6.005,-2.15 -1.461,-1.43 -2.192,-3.45 -2.192,-6.04 z"
   style="fill:#1d2167;fill-rule:nonzero"
   id="path1210"
   inkscape:connector-curvature="0" />
            </g>
            <g
   transform="matrix(1.28,0,0,1,-97.8353,0)"
   id="g1216">
                <path
   d="m 630.651,2329.1 c -3.084,0 -5.897,-0.59 -8.44,-1.75 -2.543,-1.16 -4.747,-2.74 -6.614,-4.75 -1.866,-2 -3.313,-4.32 -4.341,-6.97 -1.028,-2.66 -1.542,-5.44 -1.542,-8.36 0,-2.98 0.527,-5.79 1.582,-8.44 1.055,-2.65 2.516,-4.98 4.383,-6.98 1.866,-2 4.071,-3.6 6.613,-4.79 2.543,-1.19 5.329,-1.78 8.359,-1.78 3.029,0 5.829,0.59 8.399,1.78 2.57,1.19 4.788,2.79 6.654,4.79 1.867,2 3.327,4.33 4.382,6.98 1.055,2.65 1.583,5.46 1.583,8.44 0,2.92 -0.514,5.7 -1.542,8.36 -1.028,2.65 -2.475,4.97 -4.342,6.97 -1.866,2.01 -4.084,3.59 -6.654,4.75 -2.57,1.16 -5.397,1.75 -8.48,1.75 z m -15.338,-21.75 c 0,2.38 0.406,4.58 1.218,6.61 0.811,2.03 1.907,3.82 3.286,5.36 1.38,1.54 3.003,2.74 4.869,3.61 1.867,0.86 3.855,1.3 5.965,1.3 2.11,0 4.098,-0.45 5.964,-1.34 1.867,-0.89 3.503,-2.11 4.91,-3.65 1.406,-1.54 2.516,-3.34 3.327,-5.4 0.812,-2.06 1.217,-4.27 1.217,-6.65 0,-2.33 -0.405,-4.53 -1.217,-6.62 -0.811,-2.08 -1.921,-3.89 -3.327,-5.43 -1.407,-1.55 -3.043,-2.76 -4.91,-3.66 -1.866,-0.89 -3.854,-1.34 -5.964,-1.34 -2.11,0 -4.085,0.45 -5.924,1.34 -1.84,0.9 -3.463,2.13 -4.869,3.7 -1.407,1.56 -2.516,3.39 -3.327,5.47 -0.812,2.09 -1.218,4.32 -1.218,6.7 z"
   style="fill:#1d2167;fill-rule:nonzero"
   id="path1214"
   inkscape:connector-curvature="0" />
            </g>
            <g
   transform="matrix(1.28,0,0,1,-97.8353,0)"
   id="g1220">
                <path
   d="m 694.029,2328.28 h -5.518 v -23.61 c 0,-5.03 -0.744,-8.68 -2.232,-10.95 -1.488,-2.28 -3.773,-3.41 -6.857,-3.41 -1.623,0 -3.246,0.29 -4.869,0.89 -1.623,0.59 -3.124,1.43 -4.504,2.52 -1.379,1.08 -2.61,2.36 -3.692,3.85 -1.082,1.49 -1.867,3.1 -2.354,4.83 v 25.88 h -5.518 v -42.27 h 5.032 v 9.57 c 1.731,-3.08 4.206,-5.57 7.425,-7.46 3.219,-1.9 6.722,-2.84 10.509,-2.84 2.326,0 4.301,0.43 5.924,1.29 1.623,0.87 2.921,2.09 3.895,3.65 0.974,1.57 1.677,3.5 2.11,5.77 0.433,2.27 0.649,4.79 0.649,7.54 z"
   style="fill:#1d2167;fill-rule:nonzero"
   id="path1218"
   inkscape:connector-curvature="0" />
            </g>
            <g
   transform="matrix(1.28,0,0,1,-97.8353,0)"
   id="g1224">
                <path
   d="m 721.62,2329.1 c -3.084,0 -5.91,-0.59 -8.48,-1.75 -2.57,-1.16 -4.801,-2.76 -6.695,-4.79 -1.893,-2.03 -3.368,-4.36 -4.423,-7.02 -1.055,-2.65 -1.582,-5.49 -1.582,-8.52 0,-2.97 0.527,-5.77 1.582,-8.4 1.055,-2.62 2.516,-4.92 4.382,-6.89 1.867,-1.98 4.099,-3.55 6.695,-4.71 2.597,-1.16 5.41,-1.74 8.44,-1.74 3.084,0 5.91,0.58 8.48,1.74 2.57,1.16 4.775,2.74 6.614,4.75 1.839,2 3.273,4.3 4.301,6.89 1.028,2.6 1.542,5.36 1.542,8.28 0,0.44 0,0.87 0,1.3 0,0.43 -0.027,0.73 -0.081,0.89 h -36.193 c 0.162,2.28 0.689,4.37 1.582,6.29 0.893,1.92 2.042,3.59 3.449,4.99 1.407,1.41 3.016,2.5 4.828,3.29 1.813,0.78 3.747,1.18 5.803,1.18 1.352,0 2.705,-0.19 4.057,-0.57 1.353,-0.38 2.597,-0.89 3.733,-1.54 1.136,-0.65 2.164,-1.45 3.084,-2.4 0.919,-0.94 1.623,-1.99 2.11,-3.12 l 4.787,1.3 c -0.649,1.57 -1.568,2.99 -2.759,4.26 -1.19,1.27 -2.569,2.38 -4.138,3.32 -1.569,0.95 -3.3,1.68 -5.194,2.2 -1.893,0.51 -3.868,0.77 -5.924,0.77 z m 15.581,-24.19 c -0.162,-2.27 -0.69,-4.34 -1.582,-6.21 -0.893,-1.86 -2.029,-3.47 -3.409,-4.82 -1.379,-1.35 -2.975,-2.41 -4.788,-3.17 -1.812,-0.76 -3.746,-1.13 -5.802,-1.13 -2.056,0 -4.003,0.37 -5.843,1.13 -1.839,0.76 -3.449,1.82 -4.828,3.17 -1.38,1.35 -2.489,2.97 -3.327,4.87 -0.839,1.89 -1.339,3.95 -1.502,6.16 z"
   style="fill:#1d2167;fill-rule:nonzero"
   id="path1222"
   inkscape:connector-curvature="0" />
            </g>
            <g
   transform="matrix(1.28,0,0,1,-97.8353,0)"
   id="g1228">
                <path
   d="m 818.344,2286.01 h 5.437 l -18.178,42.27 h -4.544 l -9.089,-21.58 -9.008,21.58 h -4.544 l -18.178,-42.27 h 5.356 l 15.418,36.59 8.034,-19.31 -7.222,-17.2 h 4.626 l 5.518,13.79 5.518,-13.79 h 4.707 l -7.223,17.2 8.034,19.31 z"
   style="fill:#1d2167;fill-rule:nonzero"
   id="path1226"
   inkscape:connector-curvature="0" />
            </g>
            <g
   transform="matrix(1.28,0,0,1,-97.8353,0)"
   id="g1232">
                <path
   d="m 828.65,2328.28 v -42.27 h 5.518 v 42.27 z m 0,-51.12 v -8.11 h 5.518 v 8.11 z"
   style="fill:#1d2167;fill-rule:nonzero"
   id="path1230"
   inkscape:connector-curvature="0" />
            </g>
            <g
   transform="matrix(1.28,0,0,1,-97.8353,0)"
   id="g1236">
                <path
   d="m 864.193,2326.26 c -0.324,0.16 -0.798,0.38 -1.42,0.65 -0.622,0.27 -1.339,0.54 -2.15,0.81 -0.812,0.27 -1.731,0.51 -2.759,0.73 -1.028,0.21 -2.11,0.32 -3.246,0.32 -1.19,0 -2.327,-0.16 -3.409,-0.49 -1.082,-0.32 -2.028,-0.82 -2.84,-1.5 -0.811,-0.67 -1.461,-1.52 -1.947,-2.55 -0.487,-1.03 -0.731,-2.22 -0.731,-3.57 v -30.27 h -5.843 v -4.38 h 5.843 v -14.29 h 5.518 v 14.29 h 9.738 v 4.38 h -9.738 v 28.73 c 0.109,1.56 0.663,2.71 1.664,3.44 1.001,0.73 2.15,1.1 3.449,1.1 1.569,0 2.948,-0.26 4.139,-0.77 1.19,-0.52 1.947,-0.88 2.272,-1.1 z"
   style="fill:#1d2167;fill-rule:nonzero"
   id="path1234"
   inkscape:connector-curvature="0" />
            </g>
            <g
   transform="matrix(1.28,0,0,1,-97.8353,0)"
   id="g1240">
                <path
   d="m 904.201,2328.28 h -5.519 v -23.61 c 0,-4.81 -0.825,-8.41 -2.475,-10.79 -1.65,-2.38 -4.071,-3.57 -7.263,-3.57 -1.569,0 -3.124,0.31 -4.666,0.93 -1.542,0.62 -2.989,1.47 -4.341,2.56 -1.353,1.08 -2.53,2.35 -3.53,3.81 -1.001,1.46 -1.745,3.06 -2.232,4.79 v 25.88 h -5.518 v -59.23 h 5.518 v 26.53 c 1.677,-3.19 4.003,-5.71 6.979,-7.55 2.975,-1.83 6.194,-2.75 9.657,-2.75 2.434,0 4.49,0.44 6.167,1.33 1.677,0.9 3.057,2.14 4.139,3.74 1.082,1.59 1.866,3.51 2.353,5.76 0.487,2.24 0.731,4.72 0.731,7.42 z"
   style="fill:#1d2167;fill-rule:nonzero"
   id="path1238"
   inkscape:connector-curvature="0" />
            </g>
            <g
   transform="matrix(1.28,0,0,1,-97.8353,0)"
   id="g1244">
                <path
   d="m 983.314,2286.01 h 5.437 l -18.177,42.27 h -4.545 l -9.088,-21.58 -9.008,21.58 h -4.545 l -18.177,-42.27 h 5.356 l 15.418,36.59 8.034,-19.31 -7.222,-17.2 h 4.625 l 5.519,13.79 5.518,-13.79 h 4.707 l -7.223,17.2 8.034,19.31 z"
   style="fill:#1d2167;fill-rule:nonzero"
   id="path1242"
   inkscape:connector-curvature="0" />
            </g>
            <g
   transform="matrix(1.28,0,0,1,-97.8353,0)"
   id="g1248">
                <path
   d="m 993.62,2328.28 v -42.27 h 5.519 v 42.27 z m 0,-51.12 v -8.11 h 5.519 v 8.11 z"
   style="fill:#1d2167;fill-rule:nonzero"
   id="path1246"
   inkscape:connector-curvature="0" />
            </g>
            <g
   transform="matrix(1.28,0,0,1,-97.8353,0)"
   id="g1252">
                <path
   d="m 1044.42,2328.28 h -5.52 v -23.61 c 0,-5.03 -0.74,-8.68 -2.23,-10.95 -1.49,-2.28 -3.77,-3.41 -6.86,-3.41 -1.62,0 -3.24,0.29 -4.87,0.89 -1.62,0.59 -3.12,1.43 -4.5,2.52 -1.38,1.08 -2.61,2.36 -3.69,3.85 -1.08,1.49 -1.87,3.1 -2.36,4.83 v 25.88 h -5.51 v -42.27 h 5.03 v 9.57 c 1.73,-3.08 4.2,-5.57 7.42,-7.46 3.22,-1.9 6.73,-2.84 10.51,-2.84 2.33,0 4.3,0.43 5.93,1.29 1.62,0.87 2.92,2.09 3.89,3.65 0.97,1.57 1.68,3.5 2.11,5.77 0.43,2.27 0.65,4.79 0.65,7.54 z"
   style="fill:#1d2167;fill-rule:nonzero"
   id="path1250"
   inkscape:connector-curvature="0" />
            </g>
            <g
   transform="matrix(1.28,0,0,1,-97.8353,0)"
   id="g1256">
                <path
   d="m 1070.71,2328.85 c -2.92,0 -5.58,-0.61 -7.99,-1.82 -2.41,-1.22 -4.49,-2.83 -6.25,-4.83 -1.76,-2 -3.12,-4.3 -4.1,-6.9 -0.97,-2.6 -1.46,-5.27 -1.46,-8.03 0,-2.92 0.48,-5.72 1.42,-8.4 0.95,-2.68 2.29,-5.02 4.02,-7.02 1.73,-2 3.8,-3.6 6.21,-4.79 2.4,-1.19 5.07,-1.78 7.99,-1.78 3.63,0 6.76,0.9 9.41,2.71 2.66,1.82 4.93,4.1 6.82,6.86 v -8.84 h 4.95 v 42.44 c 0,2.92 -0.55,5.5 -1.66,7.75 -1.11,2.24 -2.6,4.12 -4.47,5.64 -1.86,1.51 -4.05,2.65 -6.57,3.4 -2.51,0.76 -5.18,1.14 -7.99,1.14 -4.87,0 -8.79,-0.86 -11.77,-2.6 -2.97,-1.73 -5.38,-4.05 -7.22,-6.97 l 3.41,-2.68 c 1.67,2.7 3.89,4.69 6.65,5.96 2.76,1.27 5.74,1.91 8.93,1.91 2.05,0 4,-0.28 5.84,-0.85 1.84,-0.57 3.45,-1.41 4.83,-2.52 1.38,-1.11 2.47,-2.51 3.29,-4.22 0.81,-1.7 1.21,-3.69 1.21,-5.96 v -8.36 c -1.62,2.7 -3.84,4.84 -6.65,6.41 -2.81,1.57 -5.76,2.35 -8.85,2.35 z m 1.55,-4.62 c 1.62,0 3.21,-0.3 4.78,-0.89 1.57,-0.6 2.99,-1.4 4.26,-2.4 1.28,-1 2.34,-2.12 3.21,-3.37 0.86,-1.24 1.43,-2.51 1.7,-3.81 v -13.07 c -0.59,-1.51 -1.4,-2.92 -2.43,-4.22 -1.03,-1.29 -2.19,-2.4 -3.49,-3.32 -1.3,-0.92 -2.69,-1.65 -4.18,-2.19 -1.49,-0.55 -2.99,-0.82 -4.5,-0.82 -2.39,0 -4.51,0.5 -6.37,1.5 -1.87,1.01 -3.45,2.32 -4.75,3.94 -1.3,1.62 -2.29,3.46 -2.96,5.52 -0.68,2.06 -1.02,4.14 -1.02,6.25 0,2.27 0.41,4.43 1.22,6.49 0.81,2.06 1.93,3.86 3.37,5.4 1.43,1.54 3.09,2.76 4.99,3.65 1.89,0.89 3.95,1.34 6.17,1.34 z"
   style="fill:#1d2167;fill-rule:nonzero"
   id="path1254"
   inkscape:connector-curvature="0" />
            </g>
            <g
   transform="matrix(1.28,0,0,1,-97.8353,0)"
   id="g1260">
                <path
   d="m 1115.51,2329.1 c -3.3,0 -6.52,-0.55 -9.66,-1.63 -3.14,-1.08 -5.84,-2.65 -8.11,-4.7 l 2.51,-3.74 c 2.38,1.95 4.8,3.41 7.27,4.39 2.46,0.97 5.09,1.46 7.91,1.46 3.41,0 6.12,-0.69 8.15,-2.07 2.03,-1.38 3.05,-3.34 3.05,-5.89 0,-1.19 -0.27,-2.17 -0.82,-2.96 -0.54,-0.78 -1.33,-1.47 -2.39,-2.07 -1.05,-0.59 -2.38,-1.12 -3.98,-1.58 -1.59,-0.46 -3.44,-0.93 -5.56,-1.42 -2.43,-0.59 -4.54,-1.19 -6.32,-1.78 -1.79,-0.6 -3.26,-1.28 -4.43,-2.03 -1.16,-0.76 -2.03,-1.69 -2.59,-2.8 -0.57,-1.11 -0.86,-2.51 -0.86,-4.18 0,-2.11 0.42,-3.98 1.26,-5.6 0.84,-1.63 1.98,-2.96 3.41,-4.02 1.43,-1.05 3.11,-1.85 5.03,-2.39 1.92,-0.54 3.96,-0.81 6.13,-0.81 3.24,0 6.19,0.52 8.84,1.58 2.65,1.05 4.79,2.45 6.41,4.18 l -2.67,3.24 c -1.57,-1.62 -3.48,-2.84 -5.72,-3.65 -2.25,-0.81 -4.59,-1.22 -7.02,-1.22 -1.47,0 -2.82,0.15 -4.06,0.45 -1.25,0.3 -2.34,0.77 -3.29,1.42 -0.94,0.65 -1.69,1.47 -2.23,2.48 -0.54,1 -0.81,2.17 -0.81,3.52 0,1.14 0.19,2.06 0.57,2.76 0.37,0.71 1,1.32 1.86,1.83 0.87,0.51 1.96,0.97 3.29,1.38 1.33,0.41 2.94,0.83 4.83,1.26 2.7,0.65 5.08,1.3 7.14,1.94 2.05,0.66 3.77,1.41 5.15,2.28 1.38,0.86 2.42,1.92 3.13,3.16 0.7,1.25 1.05,2.76 1.05,4.55 0,3.89 -1.49,6.98 -4.46,9.25 -2.98,2.27 -6.98,3.41 -12.01,3.41 z"
   style="fill:#1d2167;fill-rule:nonzero"
   id="path1258"
   inkscape:connector-curvature="0" />
            </g>
        </g></g>
    <defs
   id="defs1283"><linearGradient
     id="_Linear1"
     x1="0"
     y1="0"
     x2="1"
     y2="0"
     gradientUnits="userSpaceOnUse"
     gradientTransform="matrix(-158.501,-265.604,265.604,-158.501,4436.06,964.047)"><stop
       offset="0"
       style="stop-color:rgb(49,54,158);stop-opacity:1"
       id="stop1266" /><stop
       offset="0.52"
       style="stop-color:rgb(38,42,122);stop-opacity:1"
       id="stop1268" /><stop
       offset="1"
       style="stop-color:black;stop-opacity:1"
       id="stop1270" /></linearGradient><linearGradient
     id="_Linear2"
     x1="0"
     y1="0"
     x2="1"
     y2="0"
     gradientUnits="userSpaceOnUse"
     gradientTransform="matrix(160.563,96.0376,-96.0376,160.563,4771.78,656.669)"><stop
       offset="0"
       style="stop-color:rgb(49,54,158);stop-opacity:1"
       id="stop1273" /><stop
       offset="1"
       style="stop-color:rgb(29,33,103);stop-opacity:1"
       id="stop1275" /></linearGradient><linearGradient
     id="_Linear3"
     x1="0"
     y1="0"
     x2="1"
     y2="0"
     gradientUnits="userSpaceOnUse"
     gradientTransform="matrix(76.53,136.554,-136.554,76.53,4737.26,847.244)"><stop
       offset="0"
       style="stop-color:rgb(49,54,158);stop-opacity:1"
       id="stop1278" /><stop
       offset="1"
       style="stop-color:rgb(29,33,103);stop-opacity:1"
       id="stop1280" /></linearGradient></defs>
</svg>